<?xml version="1.0" encoding="iso-8859-1"?>
<!-- Generator: Adobe Illustrator 19.0.0, SVG Export Plug-In . SVG Version: 6.00 Build 0)  -->
<svg version="1.1" id="Capa_1" xmlns="http://www.w3.org/2000/svg" xmlns:xlink="http://www.w3.org/1999/xlink" x="0px" y="0px"
	 viewBox="0 0 512 512" style="enable-background:new 0 0 512 512;" xml:space="preserve">
<polygon style="fill:#FF4F19;" points="492.37,240.517 452.333,240.517 452.333,203.63 412.666,203.63 412.666,164.222 
	373.775,164.222 373.775,134.667 330.811,134.667 341.478,102.667 378.167,102.667 378.167,72.667 319.855,72.667 299.189,134.667 
	212.812,134.667 192.145,72.667 133.666,72.667 133.666,102.667 170.522,102.667 181.188,134.667 138.224,134.667 138.224,164.222 
	99.335,164.222 99.335,203.63 59.667,203.63 59.667,240.517 19.63,240.517 0,310.441 0,379.667 30,379.667 30,314.572 
	42.368,270.517 59.667,270.517 59.667,380 138.224,380 138.224,439.333 214.89,439.333 214.89,409.333 168.224,409.333 168.224,380 
	343.775,380 343.775,409.333 297.11,409.333 297.11,439.333 373.775,439.333 373.775,380 452.333,380 452.333,270.517 
	469.632,270.517 482,314.572 482,379.667 512,379.667 512,310.441 "/>
<polygon style="fill:#D13100;" points="492.37,240.517 452.333,240.517 452.333,203.63 412.666,203.63 412.666,164.222 
	373.775,164.222 373.775,134.667 330.811,134.667 341.478,102.667 378.167,102.667 378.167,72.667 319.855,72.667 299.189,134.667 
	256,134.667 256,380 343.775,380 343.775,409.333 297.11,409.333 297.11,439.333 373.775,439.333 373.775,380 452.333,380 
	452.333,270.517 469.632,270.517 482,314.572 482,379.667 512,379.667 512,310.441 "/>
<polygon style="fill:#585858;" points="169.17,299.606 147.957,278.394 189.231,237.12 230.504,278.394 209.291,299.606 
	189.231,279.546 "/>
<polygon style="fill:#2D2D2D;" points="342.83,299.606 322.769,279.546 302.709,299.606 281.496,278.394 322.769,237.12 
	364.043,278.394 "/>
<g>
</g>
<g>
</g>
<g>
</g>
<g>
</g>
<g>
</g>
<g>
</g>
<g>
</g>
<g>
</g>
<g>
</g>
<g>
</g>
<g>
</g>
<g>
</g>
<g>
</g>
<g>
</g>
<g>
</g>
</svg>
