<?xml version="1.0" encoding="iso-8859-1"?>
<!-- Generator: Adobe Illustrator 16.0.0, SVG Export Plug-In . SVG Version: 6.00 Build 0)  -->
<!DOCTYPE svg PUBLIC "-//W3C//DTD SVG 1.1//EN" "http://www.w3.org/Graphics/SVG/1.1/DTD/svg11.dtd">
<svg xmlns="http://www.w3.org/2000/svg" xmlns:xlink="http://www.w3.org/1999/xlink" version="1.1" id="Capa_1" x="0px" y="0px" width="512px" height="512px" viewBox="0 0 106.048 106.048" style="enable-background:new 0 0 106.048 106.048;" xml:space="preserve">
<g>
	<path d="M45.373,55.81h5.021V68.91c0,2.982-0.132,5.101-0.401,6.328c-0.271,1.237-0.77,2.288-1.502,3.133   c-0.737,0.854-1.706,1.527-2.943,2.034c-1.214,0.508-2.814,0.767-4.782,0.767c-2.392,0-4.194-0.285-5.414-0.818   c-1.23-0.564-2.206-1.269-2.92-2.148c-0.717-0.881-1.184-1.808-1.411-2.771c-0.329-1.424-0.5-3.531-0.5-6.317V55.82h5.033v13.499   c0,2.149,0.062,3.536,0.187,4.168c0.215,1.015,0.725,1.844,1.541,2.46c0.808,0.616,1.916,0.927,3.314,0.927   c1.437,0,2.519-0.3,3.242-0.875c0.72-0.575,1.16-1.305,1.305-2.154c0.153-0.844,0.228-2.252,0.228-4.235v-13.8H45.373z    M70.847,72.457L60.656,55.81h-4.898v24.928h4.671V64.482l10.046,16.255h5.054V55.81h-4.682V72.457z M106.048,21.209v63.629   c0,11.666-9.543,21.21-21.21,21.21H21.209C9.543,106.048,0,96.504,0,84.838V21.209C0,9.543,9.543,0,21.209,0h63.628   C96.505,0,106.048,9.543,106.048,21.209z M51.486,39.788h2.843V27.625c0.269-0.047,0.579-0.085,0.994-0.233   c0.569-0.208,1.19-0.445,1.905-0.705c0.704-0.251,1.388-0.455,2.051-0.601c0.652-0.158,1.129-0.228,1.439-0.228   c0.601,0,1.372,0.101,2.268,0.303c0.912,0.228,1.885,0.477,2.869,0.759c1.025,0.323,1.947,0.562,2.832,0.774   c0.844,0.2,1.59,0.285,2.18,0.285c0.938,0,1.938-0.132,3.045-0.43V15.547c-0.922,0.391-1.916,0.608-3.045,0.608   c-0.59,0-1.336-0.096-2.18-0.318c-0.885-0.173-1.807-0.45-2.832-0.759c-0.984-0.311-1.916-0.543-2.775-0.74   c-0.87-0.212-1.595-0.318-2.206-0.318c-2.04,0-4.215,0.497-6.535,1.421v-2.185h-2.853V39.788z M86.65,48.845H73.727v-6.907H32.319   v6.907H19.397v43.947h22.936v-5.976h21.088v5.976H86.65V48.845z" fill="#006DF0"/>
</g>
<g></g>
<g></g>
<g></g>
<g></g>
<g></g>
<g></g>
<g></g>
<g></g>
<g></g>
<g></g>
<g></g>
<g></g>
<g></g>
<g></g>
<g></g>
</svg>
