<?xml version="1.0" encoding="iso-8859-1"?>
<!-- Generator: Adobe Illustrator 19.0.0, SVG Export Plug-In . SVG Version: 6.00 Build 0)  -->
<svg version="1.1" id="Capa_1" xmlns="http://www.w3.org/2000/svg" xmlns:xlink="http://www.w3.org/1999/xlink" x="0px" y="0px"
	 viewBox="0 0 512 512" style="enable-background:new 0 0 512 512;" xml:space="preserve">
<path style="fill:#1DE8F1;" d="M286,391h-60c-8.401,0-15,6.599-15,15v17.699c0,30.901,12.599,61.901,34.501,83.8
	C248.2,510.5,252.1,512,256,512s7.8-1.5,10.499-4.501C288.401,485.6,301,454.6,301,423.699V406C301,397.599,294.401,391,286,391z"/>
<path style="fill:#1BD9DE;" d="M301,406v17.699c0,30.901-12.599,61.901-34.501,83.8C263.8,510.5,259.9,512,256,512V391h30
	C294.401,391,301,397.599,301,406z"/>
<path style="fill:#FD3018;" d="M436,181c-26.64,0-37.52,43.477-41.959,81.791L436,301l41.946-38.459
	C473.484,224.292,462.578,181,436,181z"/>
<path style="fill:#FD4E26;" d="M76,181c-26.596,0-37.502,43.352-41.957,81.623L76,301l41.94-38.366
	C113.489,224.358,102.603,181,76,181z"/>
<path style="fill:#CAE8F9;" d="M481,316c0,22.5-2.1,135-45,135c-18.6,0-31.199-19.801-38.699-60h-45L326.5,416.499
	C323.8,419.5,319.9,421,316,421H196c-3.9,0-7.8-1.5-10.499-4.501L159.699,391h-45c-7.5,40.199-20.099,60-38.699,60
	c-42.9,0-45-112.5-45-135c0-16.201,0.901-35.7,2.999-53.401C46.3,267.7,61,271,76,271c15.3,0,29.7-3.3,42.001-8.401
	c1.5,12.601,2.399,25.8,2.699,38.401h34.801c2.81-30.001,14.227-89.974,30.298-139.2L256,151l70.201,10.8
	C340.6,205,351.4,256,356.499,301H391.3c0.3-12.9,1.199-25.8,2.699-38.101c25.201,10.201,58.801,9.6,84.001-0.3
	C480.099,280.3,481,299.799,481,316z"/>
<path style="fill:#B7E0F6;" d="M481,316c0,22.5-2.1,135-45,135c-18.6,0-31.199-19.801-38.699-60h-45L326.5,416.499
	C323.8,419.5,319.9,421,316,421h-60V151l70.201,10.8C340.6,205,351.4,256,356.499,301H391.3c0.3-12.9,1.199-25.8,2.699-38.101
	c25.201,10.201,58.801,9.6,84.001-0.3C480.099,280.3,481,299.799,481,316z"/>
<g>
	<circle style="fill:#1689FC;" cx="436" cy="136" r="15"/>
	<circle style="fill:#1689FC;" cx="436" cy="76" r="15"/>
	<circle style="fill:#1689FC;" cx="436" cy="15" r="15"/>
</g>
<g>
	<circle style="fill:#17ACE8;" cx="76" cy="136" r="15"/>
	<circle style="fill:#17ACE8;" cx="76" cy="76" r="15"/>
	<circle style="fill:#17ACE8;" cx="76" cy="15" r="15"/>
</g>
<g>
	<path style="fill:#FD4E26;" d="M256,211c-24.901,0-45,20.099-45,45v60c0,24.899,20.099,45,45,45s45-20.101,45-45v-60
		C301,231.099,280.901,211,256,211z"/>
	<path style="fill:#FD4E26;" d="M326.201,161.8c-18.602,12-43.2,19.2-70.201,19.2s-51.301-7.2-70.201-19.2
		C196.3,130.3,222.7,61,256,61S315.7,130.3,326.201,161.8z"/>
</g>
<g>
	<path style="fill:#FD3018;" d="M326.201,161.8c-18.602,12-43.2,19.2-70.201,19.2V61C289.3,61,315.7,130.3,326.201,161.8z"/>
	<path style="fill:#FD3018;" d="M301,256v60c0,24.899-20.099,45-45,45V211C280.901,211,301,231.099,301,256z"/>
</g>
<g>
</g>
<g>
</g>
<g>
</g>
<g>
</g>
<g>
</g>
<g>
</g>
<g>
</g>
<g>
</g>
<g>
</g>
<g>
</g>
<g>
</g>
<g>
</g>
<g>
</g>
<g>
</g>
<g>
</g>
</svg>
